<?xml version="1.0" standalone="no"?>
<!DOCTYPE svg PUBLIC "-//W3C//DTD SVG 20010904//EN"
 "http://www.w3.org/TR/2001/REC-SVG-20010904/DTD/svg10.dtd">
<svg version="1.0" xmlns="http://www.w3.org/2000/svg"
 width="900.000000pt" height="900.000000pt" viewBox="0 0 900.000000 900.000000"
 preserveAspectRatio="xMidYMid meet">
<metadata>
Created by potrace 1.11, written by Peter Selinger 2001-2013
</metadata>
<g transform="translate(0.000000,900.000000) scale(0.100000,-0.100000)"
fill="#000000" stroke="none">
<path d="M0 6021 l0 -2979 37 9 c52 12 158 1 218 -24 44 -18 82 -21 325 -28
151 -4 325 -10 386 -14 137 -9 168 -1 251 71 33 30 65 54 71 54 5 0 15 7 23
16 17 21 103 64 128 64 25 0 38 -20 20 -31 -19 -11 -4 -23 18 -14 10 5 23 9
28 10 6 1 12 3 15 4 3 2 13 4 22 6 27 5 98 38 98 46 0 8 36 21 70 25 44 4 96
21 123 39 15 10 30 15 34 12 3 -4 14 -2 24 3 14 8 19 5 25 -12 4 -12 34 -56
68 -98 61 -74 82 -117 106 -215 7 -27 16 -54 20 -60 4 -5 10 -23 14 -40 6 -25
9 -27 17 -13 5 10 16 15 24 12 14 -6 19 5 16 32 0 5 15 18 35 27 22 11 39 28
45 47 7 18 19 30 32 32 18 2 22 10 23 37 0 29 5 36 27 44 17 5 27 16 27 28 0
10 6 19 13 19 7 0 21 15 30 34 12 25 23 35 44 38 20 2 29 9 31 25 4 27 10 28
34 6 19 -17 22 -11 9 22 -7 16 -2 23 23 35 26 13 31 21 30 48 -1 21 3 32 12
32 8 0 14 -5 14 -11 0 -7 9 -5 24 5 14 9 33 13 42 9 12 -4 15 -2 12 8 -3 8
-17 14 -31 14 -27 -1 -37 10 -16 17 5 2 11 18 11 35 1 31 18 38 18 7 0 -8 4
-14 8 -14 5 0 9 7 9 15 0 8 -4 15 -9 15 -4 0 -8 7 -8 16 0 10 6 14 15 10 8 -3
15 0 15 7 0 6 10 2 22 -10 20 -20 20 -24 6 -40 -20 -23 -21 -111 -2 -130 11
-12 14 -10 20 12 7 27 24 35 24 11 0 -8 5 -18 12 -22 8 -5 9 -2 5 9 -3 10 -3
17 2 17 12 0 20 -36 14 -60 -4 -16 -9 -18 -27 -9 -19 9 -19 9 -3 -4 9 -8 17
-20 18 -28 0 -8 5 -4 11 9 8 16 20 22 42 22 28 -1 29 -2 14 -14 -10 -7 -18
-18 -18 -24 0 -6 -6 -12 -12 -15 -7 -2 -10 -8 -6 -12 4 -4 15 0 24 10 17 16
18 16 31 -1 10 -14 10 -20 0 -32 -11 -13 -9 -14 11 -1 20 12 24 12 33 -3 7
-13 17 -16 39 -11 18 3 30 1 30 -5 0 -6 -12 -13 -27 -15 -27 -4 -27 -4 -5 -12
12 -4 22 -11 22 -16 0 -5 7 -6 15 -3 9 4 15 0 15 -10 0 -9 -8 -16 -20 -16 -11
0 -20 5 -20 11 0 5 -5 7 -10 4 -6 -3 -10 -3 -10 2 0 4 -16 9 -35 10 -30 3 -35
0 -35 -20 0 -20 4 -22 63 -22 48 0 62 -3 62 -15 0 -19 -35 -26 -46 -8 -7 10
-9 10 -9 0 0 -7 12 -25 28 -39 21 -21 23 -25 7 -19 -23 8 -25 9 -42 7 -9 -1
-10 -8 -3 -27 9 -24 8 -26 -9 -21 -12 3 -19 0 -18 -6 1 -6 -8 -13 -20 -15 -23
-3 -33 -22 -12 -22 8 0 8 -5 -1 -15 -9 -11 -9 -19 -2 -28 7 -7 7 -18 2 -27 -7
-11 -11 -11 -23 -1 -10 8 -17 9 -22 1 -3 -5 -1 -10 4 -10 6 0 11 -10 11 -22 0
-21 1 -21 14 -3 13 18 14 18 25 -3 13 -25 31 -29 31 -7 0 8 4 15 8 15 9 0 7
-58 -2 -68 -4 -3 -12 0 -18 6 -7 7 -23 12 -36 12 -20 0 -23 -4 -19 -21 4 -16
2 -19 -10 -15 -13 5 -14 4 -3 -9 11 -13 10 -18 -6 -30 -15 -11 -16 -14 -4 -15
9 0 15 -9 15 -24 0 -13 -3 -22 -7 -20 -11 7 -39 -8 -35 -20 3 -6 -2 -17 -10
-24 -11 -11 -15 -8 -24 17 -12 33 -29 33 -29 -1 0 -14 -5 -18 -15 -14 -8 3
-15 1 -15 -4 0 -6 10 -11 23 -11 16 -1 18 -2 5 -6 -10 -2 -18 -11 -18 -18 0
-8 -15 -24 -32 -37 -18 -12 -42 -31 -53 -41 -11 -10 -28 -16 -37 -13 -22 5
-22 -2 -2 -42 11 -23 12 -36 5 -49 -8 -14 -11 -15 -11 -3 -1 27 -40 -33 -40
-62 0 -30 -14 -38 -24 -13 -9 24 -33 17 -38 -10 -3 -14 -1 -25 5 -25 6 0 8 -3
4 -6 -9 -9 -48 6 -41 17 3 5 10 7 15 4 5 -4 9 1 9 9 0 24 -38 19 -51 -5 -9
-18 -8 -24 5 -31 9 -5 16 -17 16 -26 0 -10 4 -22 9 -28 5 -5 5 -18 1 -29 -7
-19 -7 -19 -14 3 -7 20 -13 22 -42 18 -29 -5 -34 -3 -34 14 0 11 -7 20 -15 20
-8 0 -15 -6 -15 -14 0 -17 -18 -31 -27 -22 -4 3 1 14 10 23 12 14 13 21 4 34
-16 21 -57 31 -57 14 0 -7 -5 -15 -11 -17 -9 -3 -9 -22 1 -73 7 -39 14 -81 16
-95 3 -24 28 -145 58 -285 8 -38 24 -131 35 -205 35 -230 40 -255 71 -316 36
-74 66 -184 51 -193 -6 -4 -6 -12 -1 -20 4 -8 6 -19 4 -25 -6 -15 63 -44 175
-72 52 -13 103 -32 113 -41 18 -16 18 -17 -9 -34 -27 -17 -32 -16 -133 11
-131 35 -202 62 -251 96 -43 29 -47 45 -24 91 8 17 13 37 10 44 -7 18 -79 69
-97 69 -7 0 -29 9 -49 19 -20 11 -54 23 -75 27 -22 4 -71 19 -111 35 -76 30
-314 146 -323 157 -3 4 -21 15 -40 25 -19 9 -50 26 -68 37 -26 16 -43 19 -70
14 -21 -4 -30 -9 -22 -12 57 -18 64 -23 50 -32 -8 -6 -25 -10 -38 -10 -32 0
-19 -16 20 -25 l33 -7 -32 -11 c-41 -15 -52 -27 -25 -27 29 0 73 -21 66 -31
-3 -5 -18 -9 -35 -9 -16 0 -29 -4 -29 -10 0 -5 8 -10 19 -10 10 0 24 -6 30
-14 9 -11 5 -15 -20 -20 -32 -6 -31 -26 2 -26 28 0 24 -18 -6 -26 -34 -8 -32
-21 5 -29 36 -8 40 -25 5 -25 -35 0 -31 -17 5 -25 40 -9 38 -19 -7 -31 l-38
-10 43 -13 c48 -14 56 -31 13 -31 -17 0 -33 -4 -36 -10 -6 -10 -5 -11 33 -15
43 -4 48 -23 8 -30 -49 -10 -54 -23 -10 -31 l36 -7 -27 -17 -28 -18 29 -15 29
-15 -27 -7 c-35 -9 -36 -23 -3 -31 34 -8 31 -19 -7 -31 l-33 -10 40 -19 c37
-17 38 -18 15 -22 -42 -6 -47 -21 -12 -34 40 -15 40 -24 1 -32 -27 -5 -30 -8
-19 -21 7 -8 22 -15 34 -16 21 0 21 0 -1 -11 -21 -10 -34 -50 -15 -47 30 5 31
-5 2 -21 -19 -11 -29 -19 -21 -20 9 0 12 -8 8 -26 -4 -21 1 -29 25 -44 l29
-18 -38 -7 c-23 -5 -31 -10 -20 -12 9 -3 15 -9 12 -14 -6 -8 8 -13 28 -10 4 0
7 -3 7 -9 0 -5 -8 -10 -18 -10 -10 0 -21 -3 -25 -6 -11 -11 5 -34 23 -34 11 0
22 -4 25 -10 3 -6 -5 -10 -19 -10 -29 0 -44 -19 -25 -31 12 -7 12 -12 1 -29
-15 -24 -8 -40 16 -40 11 -1 7 -6 -12 -17 -29 -15 -30 -16 -10 -32 27 -22 36
-48 18 -55 -8 -3 -14 -12 -14 -20 0 -10 6 -13 15 -10 10 4 15 0 15 -14 0 -18
8 -21 58 -26 98 -11 195 -28 260 -47 34 -10 70 -16 80 -12 14 5 15 3 5 -8 -18
-18 -16 -32 3 -25 8 3 12 2 9 -4 -4 -7 329 -10 970 -10 870 0 976 2 982 15 14
39 181 215 203 215 9 0 33 9 55 20 22 11 49 20 61 20 13 0 34 4 48 10 14 5 51
12 82 15 49 4 55 3 44 -10 -15 -18 -58 -40 -130 -67 -30 -11 -71 -32 -90 -46
-35 -25 -49 -38 -129 -124 l-44 -48 682 0 c486 0 681 3 681 11 0 6 -9 13 -20
16 -23 6 -27 33 -5 33 8 0 16 6 16 13 1 6 2 17 4 22 1 6 3 16 3 23 3 18 20 15
24 -6 2 -10 6 -13 10 -6 4 6 -2 20 -12 32 -22 23 -26 42 -10 42 6 0 10 9 10
19 0 11 6 21 13 24 9 3 9 7 0 17 -6 7 -9 19 -6 28 4 8 -2 21 -12 28 -17 13
-17 14 -2 14 9 0 17 6 17 13 1 6 7 -3 15 -22 8 -18 12 -37 9 -42 -3 -5 -1 -9
5 -9 5 0 9 26 7 60 -1 33 2 60 6 60 4 0 8 -7 8 -16 0 -8 5 -12 10 -9 15 10 12
35 -5 35 -8 0 -15 5 -15 10 0 6 7 10 15 10 12 0 11 4 -5 20 -21 21 -26 45 -11
54 4 3 6 17 3 31 -3 20 -9 24 -21 19 -38 -16 -71 0 -70 36 0 9 4 7 9 -6 4 -12
15 -24 22 -26 16 -7 48 14 48 31 0 6 4 11 10 11 5 0 7 -6 4 -14 -3 -8 -1 -17
5 -21 6 -3 14 1 18 11 8 21 -21 44 -54 44 -13 0 -23 4 -23 9 0 5 -9 11 -20 14
-14 4 -19 13 -18 30 2 18 7 23 20 19 12 -3 18 1 18 12 0 9 4 16 10 16 5 0 7 6
4 14 -3 7 2 16 10 19 20 8 20 21 1 41 -13 13 -13 15 5 21 28 9 13 28 -16 21
-13 -4 -24 -3 -24 2 0 5 -11 14 -25 20 -14 6 -25 18 -25 27 0 8 -7 15 -16 15
-9 0 -14 7 -12 18 3 22 -27 67 -37 53 -12 -20 -37 -13 -30 9 3 11 2 20 -4 20
-5 0 -11 9 -13 21 -3 21 -4 20 -31 -5 -15 -14 -38 -28 -50 -31 -19 -5 -26 0
-40 33 -20 45 -22 89 -5 94 7 3 5 13 -7 31 -12 19 -15 37 -11 61 5 27 3 35 -9
38 -13 3 -13 8 5 40 12 22 16 40 10 43 -6 3 -10 1 -10 -5 0 -6 -4 -9 -10 -5
-10 6 -2 36 14 48 8 5 6 10 -3 16 -11 7 -12 13 -4 23 19 24 23 75 8 88 -17 14
-21 35 -5 25 6 -3 10 2 10 11 0 10 15 39 32 64 24 35 51 57 103 84 74 38 117
71 194 148 45 43 150 118 168 118 4 0 31 22 60 48 41 37 147 103 173 107 32 5
77 19 87 27 7 5 16 7 20 5 5 -3 26 3 48 13 22 11 45 19 51 20 16 0 77 31 92
47 7 7 25 13 39 13 14 0 46 10 72 23 25 13 60 27 76 31 38 9 135 36 155 44 8
3 22 6 31 7 9 1 39 13 65 26 43 21 63 24 162 24 77 0 112 3 112 11 0 17 37 24
49 10 13 -15 82 -11 92 5 3 6 4 21 1 33 -4 16 -2 19 8 9 7 -6 19 -9 26 -6 15
6 19 33 5 33 -15 0 -21 43 -8 59 9 11 9 15 0 18 -7 3 -13 11 -13 18 0 8 -8 16
-18 20 -11 3 -24 22 -31 44 -6 22 -25 54 -42 72 -17 18 -36 44 -44 58 -18 35
-189 227 -220 247 -13 9 -27 24 -30 35 -3 10 -36 48 -72 84 l-65 67 7 46 c4
25 25 82 48 127 22 44 52 111 66 149 26 70 27 70 97 105 108 55 143 105 140
201 -2 66 -27 110 -56 103 -11 -3 -20 -11 -20 -18 0 -7 -7 -16 -16 -19 -23 -9
-54 -7 -54 3 0 13 -54 0 -66 -17 -9 -12 -14 -12 -33 -1 -18 12 -23 12 -30 0
-5 -7 -15 -11 -22 -9 -8 3 -31 -1 -53 -8 -21 -8 -42 -11 -47 -8 -5 3 -9 1 -9
-4 0 -4 -26 -8 -57 -7 -32 1 -62 0 -67 -3 -5 -3 -23 -6 -39 -8 -37 -2 -96 48
-80 68 6 7 13 25 17 40 3 16 30 46 65 75 33 26 60 54 60 61 1 6 9 20 19 30 23
25 45 63 39 69 -3 2 5 14 17 26 41 43 76 91 76 105 0 7 5 10 11 7 6 -4 13 2
16 13 3 11 12 23 20 26 8 3 11 10 8 16 -3 5 0 10 8 10 22 0 49 36 43 57 -4 13
-1 19 12 19 9 1 22 2 27 4 33 9 54 -2 60 -30 4 -17 13 -43 21 -59 8 -16 14
-42 12 -58 -3 -44 49 -123 81 -123 8 0 22 -6 30 -14 78 -70 242 -156 297 -156
36 0 68 13 92 37 7 7 20 13 28 13 8 0 14 4 14 8 0 5 18 15 41 22 67 22 77 37
126 178 34 98 27 162 -33 299 -8 17 -14 34 -14 38 0 15 -54 75 -88 97 -83 54
-145 70 -358 94 -40 5 -42 6 -48 47 -8 50 22 146 50 162 10 6 28 21 40 35 21
23 32 42 82 149 9 19 15 46 14 60 -1 13 4 31 12 40 15 18 36 88 60 201 22 104
15 611 -9 710 -9 36 -18 74 -20 86 -13 87 -86 367 -115 444 -10 25 -23 70 -30
100 -7 30 -26 74 -42 98 -16 23 -41 68 -55 100 -14 31 -34 75 -45 97 -10 22
-27 61 -37 87 -18 46 -93 150 -141 196 -14 14 -24 28 -22 33 1 5 -4 9 -11 9
-17 0 -119 104 -111 113 4 4 1 7 -6 7 -7 0 -18 6 -24 13 -26 32 -215 186 -258
211 -27 16 -48 34 -48 42 0 8 -3 13 -7 12 -21 -4 -64 16 -77 36 -14 22 -176
85 -298 116 -27 7 -48 16 -48 20 0 4 -9 10 -20 13 -11 3 -23 13 -27 24 -8 21
-28 43 -40 43 -4 0 -21 14 -37 30 -16 17 -35 30 -43 30 -7 0 -13 4 -13 9 0 5
-9 13 -20 16 -11 3 -36 22 -57 41 -20 19 -39 32 -42 29 -3 -4 1 -10 9 -15 8
-5 11 -12 7 -16 -4 -4 -13 -2 -19 4 -7 7 -19 12 -28 12 -20 0 -70 23 -70 32 0
4 -7 5 -16 1 -10 -4 -15 -1 -14 8 4 24 0 39 -9 39 -5 0 -7 -9 -4 -20 5 -17 0
-20 -26 -20 -17 0 -31 5 -31 10 0 6 -10 10 -22 10 -38 0 -68 12 -68 26 0 7 -6
11 -14 8 -8 -3 -15 3 -18 14 -3 10 -11 19 -19 20 -8 0 -21 3 -29 5 -50 16 -60
20 -60 28 0 17 -35 49 -52 49 -10 0 -27 -5 -37 -12 -16 -10 -26 -8 -55 7 -20
11 -34 25 -32 31 3 7 -10 19 -27 28 -18 8 -28 16 -23 16 15 0 -26 40 -41 40
-7 0 -13 5 -13 10 0 6 -11 15 -25 20 -26 10 -32 29 -14 47 8 8 8 13 0 17 -6 4
-11 16 -11 26 0 10 -12 32 -26 49 l-26 31 29 2 c15 0 33 1 40 1 6 0 14 6 17
13 3 8 0 14 -5 14 -7 0 -9 9 -6 22 4 14 0 29 -11 41 -16 18 -16 19 1 28 23 13
23 43 0 35 -10 -4 -14 -4 -11 0 4 4 3 15 -3 26 -8 14 -7 25 4 41 8 12 12 28
10 35 -4 9 -323 12 -1553 12 l-1548 0 -6 -35 c-4 -20 -4 -39 -1 -44 3 -6 1
-12 -4 -16 -6 -3 -8 -11 -6 -18 2 -7 7 -55 10 -107 5 -86 10 -130 15 -137 2
-2 4 -7 5 -13 1 -5 3 -11 5 -12 1 -2 3 -12 4 -23 4 -30 57 -179 66 -185 4 -3
17 -26 28 -51 12 -25 28 -51 36 -58 8 -6 17 -24 21 -39 4 -15 10 -29 14 -32 4
-3 24 -30 43 -60 20 -30 45 -65 57 -77 11 -12 21 -24 21 -27 0 -19 321 -336
340 -336 4 0 10 -9 13 -19 6 -23 -12 -49 -73 -112 -74 -76 -144 -167 -156
-201 -6 -18 -21 -55 -34 -83 -13 -27 -21 -50 -19 -50 2 0 -6 -11 -18 -25 -13
-13 -24 -29 -24 -34 -1 -6 -2 -16 -3 -23 -1 -15 -52 -54 -59 -46 -3 3 -9 -8
-13 -23 -3 -16 -19 -50 -35 -77 -16 -26 -29 -52 -29 -57 0 -6 -4 -10 -9 -10
-5 0 -12 -13 -16 -29 -3 -16 -13 -35 -21 -42 -8 -6 -14 -23 -14 -38 0 -15 -4
-31 -9 -36 -14 -17 -41 -107 -34 -118 3 -5 -1 -15 -9 -21 -23 -17 -47 -59 -47
-81 1 -45 -33 -173 -52 -200 -4 -6 -7 -25 -7 -42 1 -17 -5 -46 -12 -63 -7 -17
-10 -33 -7 -37 4 -3 2 -14 -4 -24 -5 -10 -11 -31 -13 -46 -2 -15 -9 -50 -14
-77 -6 -27 -6 -60 -2 -75 13 -40 18 -191 7 -191 -6 0 -7 -17 -3 -41 4 -28 2
-44 -7 -54 -12 -11 -16 -9 -29 13 -9 15 -19 47 -22 72 -12 82 -38 194 -56 245
-18 49 -34 101 -64 215 -35 132 -58 216 -63 230 -4 8 -5 20 -4 27 1 6 -3 14
-9 18 -5 3 -10 16 -10 29 0 13 -9 49 -21 82 -11 32 -22 71 -24 86 -2 16 -11
43 -19 60 -8 18 -17 51 -21 73 -4 22 -10 45 -15 50 -9 11 -50 175 -50 199 0 9
-4 16 -9 16 -8 0 -21 45 -56 197 -7 34 -19 71 -24 82 -6 11 -11 29 -11 40 0
10 -3 21 -7 23 -5 2 -20 52 -36 113 -15 60 -31 112 -36 115 -5 3 -9 22 -9 43
0 21 -5 44 -11 51 -6 8 -12 30 -13 50 -1 20 -6 36 -11 36 -5 0 -7 9 -4 20 3
11 2 20 -1 20 -11 0 -32 52 -26 61 3 5 -8 48 -25 97 -16 48 -43 137 -59 197
-17 61 -39 141 -50 180 -11 38 -19 72 -16 76 2 4 -2 9 -10 12 -7 3 -16 24 -20
47 -3 22 -10 49 -15 58 -5 9 -21 62 -37 117 -15 55 -31 104 -36 110 -4 5 -8
21 -8 35 0 50 -3 50 -327 50 l-303 0 0 -2979z m4640 2899 c0 -5 -5 -10 -11
-10 -5 0 -7 5 -4 10 3 6 8 10 11 10 2 0 4 -4 4 -10z m63 -247 c-3 -7 -14 -13
-25 -13 -16 0 -18 3 -9 13 6 8 17 14 25 14 8 0 12 -6 9 -14z m387 -333 c0 -5
-2 -10 -4 -10 -3 0 -8 5 -11 10 -3 6 -1 10 4 10 6 0 11 -4 11 -10z m520 -270
c12 -8 9 -10 -12 -10 -16 0 -28 5 -28 10 0 13 20 13 40 0z m356 -184 c27 -14
42 -25 34 -25 -18 -1 -100 35 -100 44 0 10 16 5 66 -19z m103 -37 c17 -6 31
-14 31 -19 0 -8 -65 11 -76 23 -11 10 9 8 45 -4z m331 -289 c0 -5 -2 -10 -4
-10 -3 0 -8 5 -11 10 -3 6 -1 10 4 10 6 0 11 -4 11 -10z m-1178 -1538 c-7 -2
-10 -8 -6 -13 3 -5 0 -9 -5 -9 -13 0 -13 3 -5 24 3 9 11 13 17 9 8 -5 7 -8 -1
-11z m-22 -48 c13 -34 13 -37 -4 -31 -10 4 -13 1 -9 -9 7 -19 117 -23 137 -4
13 13 36 0 29 -16 -3 -8 1 -24 10 -37 12 -19 12 -24 1 -35 -16 -15 -19 -42 -4
-42 22 0 8 -54 -26 -106 -20 -30 -40 -54 -45 -54 -5 0 -9 -13 -9 -30 0 -40
-20 -82 -37 -76 -16 7 -16 -2 2 -34 12 -23 11 -27 -18 -52 -25 -21 -29 -29
-19 -36 11 -7 10 -10 -3 -16 -22 -8 -36 1 -28 19 3 8 0 15 -6 15 -7 0 -14 -7
-17 -15 -5 -12 -17 -14 -48 -11 -170 21 -219 27 -276 36 -36 6 -85 13 -110 16
-25 4 -56 13 -70 20 -25 13 -25 13 -2 14 12 0 22 6 22 13 0 6 16 30 35 51 19
22 35 44 35 49 0 6 3 8 6 4 9 -9 36 21 32 34 -2 7 22 39 54 72 32 33 60 68 63
78 4 11 14 19 24 19 10 0 31 18 46 41 30 43 75 72 97 64 9 -4 18 7 26 28 19
54 96 75 112 31z m253 -19 c-5 -13 -23 -22 -23 -11 0 15 14 35 21 31 4 -3 6
-12 2 -20z m-3873 -235 c0 -5 -2 -10 -4 -10 -3 0 -8 5 -11 10 -3 6 -1 10 4 10
6 0 11 -4 11 -10z m1378 -78 c23 -2 32 -22 9 -22 -8 0 -13 -10 -13 -22 1 -22
-4 -23 -88 -31 -106 -9 -126 -5 -102 21 9 10 16 24 16 30 0 7 3 11 8 10 4 0
14 1 22 5 37 14 57 15 148 9z m2292 -196 c0 -3 -4 -8 -10 -11 -5 -3 -10 -1
-10 4 0 6 5 11 10 11 6 0 10 -2 10 -4z m-2301 -213 c17 -21 31 -46 31 -55 0
-10 3 -18 8 -18 4 0 12 -11 19 -25 12 -27 0 -35 -15 -9 -19 33 -94 -36 -145
-134 -25 -46 -30 -69 -33 -141 -2 -62 1 -92 12 -108 8 -12 14 -38 14 -58 0
-28 -4 -35 -19 -35 -21 0 -71 41 -71 58 0 14 -24 22 -49 15 -28 -7 -26 -21 4
-29 14 -3 25 -9 25 -13 0 -13 -24 -31 -41 -31 -20 0 -30 28 -34 93 -2 38 1 47
14 47 14 1 13 2 -2 11 -14 8 -16 14 -6 25 6 8 16 14 22 14 6 0 8 -3 4 -6 -3
-4 1 -13 9 -21 8 -8 11 -19 8 -25 -4 -7 -2 -8 5 -4 6 4 9 12 6 17 -4 5 -2 9 3
9 10 0 7 125 -3 168 -4 18 -1 22 20 22 19 0 25 5 25 23 0 12 9 46 20 75 11 29
20 62 20 75 0 36 56 97 90 97 21 0 37 -10 59 -37z m2116 -114 c125 -29 119
-27 105 -44 -10 -12 -7 -13 22 -5 43 13 42 13 23 -7 -16 -16 -16 -17 4 -25 11
-4 21 -12 21 -18 0 -5 3 -9 8 -8 13 4 52 -13 52 -22 0 -5 6 -7 14 -4 13 5 33
-29 28 -47 -1 -4 14 -17 33 -30 19 -13 40 -34 46 -46 7 -13 18 -23 26 -23 7 0
13 -11 13 -25 0 -14 6 -25 13 -25 14 0 40 -37 33 -48 -2 -4 8 -8 22 -9 14 0
33 -12 43 -24 20 -26 31 -82 18 -87 -5 -2 -7 -8 -3 -13 3 -5 1 -9 -3 -9 -5 0
-14 14 -20 30 -9 23 -18 30 -38 30 -14 0 -24 4 -21 8 7 12 -33 54 -44 47 -5
-3 -11 -1 -14 4 -4 5 -2 12 4 16 18 11 10 22 -20 29 -17 3 -48 23 -69 43 -21
21 -58 55 -82 75 -24 20 -54 46 -66 58 -13 11 -23 18 -23 15 0 -4 -15 8 -34
27 -71 68 -93 86 -112 90 -12 2 -18 10 -16 22 2 10 -1 15 -7 12 -5 -4 -12 -2
-16 4 -3 5 -19 10 -36 10 -16 0 -29 5 -29 10 0 15 24 12 125 -11z m-1978 -15
c-3 -3 -12 -4 -19 -1 -8 3 -5 6 6 6 11 1 17 -2 13 -5z m1283 -11 c0 -9 15 -13
52 -13 45 0 138 -23 203 -50 11 -5 30 -12 43 -15 18 -5 73 -34 205 -107 12 -7
24 -15 27 -18 3 -3 39 -27 80 -55 67 -44 108 -78 203 -167 15 -16 33 -28 38
-28 5 0 9 -7 9 -15 0 -9 7 -18 15 -21 8 -4 15 -11 15 -17 0 -6 8 -19 18 -30 9
-11 11 -17 5 -13 -18 10 -16 -9 2 -24 21 -17 20 -44 -1 -36 -13 5 -15 1 -10
-18 4 -16 1 -26 -8 -29 -9 -4 -16 1 -18 10 -3 15 -5 15 -20 -1 -10 -10 -18
-13 -18 -7 0 8 -81 51 -96 51 -2 0 -4 -9 -4 -20 0 -20 -11 -26 -23 -13 -4 3
-18 7 -31 9 -22 2 -24 0 -19 -37 3 -21 2 -39 -1 -39 -12 0 -51 22 -59 34 -5 7
-11 5 -18 -6 -5 -10 -15 -18 -20 -18 -6 0 -7 6 -3 13 6 8 3 8 -9 -1 -18 -15
-37 -8 -37 13 0 7 -7 15 -14 18 -10 4 -13 1 -10 -7 4 -10 -6 -13 -35 -12 -23
0 -41 5 -41 11 -1 5 -7 -1 -15 -15 -12 -22 -14 -23 -20 -8 -5 13 -14 16 -31
12 -22 -6 -24 -3 -24 25 0 21 -6 34 -17 38 -10 4 -21 11 -25 17 -5 7 -8 5 -8
-5 0 -23 -25 -31 -56 -17 -15 7 -23 17 -19 26 3 10 0 12 -10 8 -12 -4 -14 0
-9 20 6 25 5 25 -16 14 -13 -7 -35 -16 -51 -20 -22 -7 -27 -5 -22 6 3 8 0 21
-7 29 -6 8 -8 20 -4 27 4 7 4 10 -1 6 -11 -11 -45 10 -45 28 0 17 -43 39 -63
31 -10 -3 -13 -14 -10 -31 10 -51 -58 -15 -71 37 -6 27 -5 28 28 25 20 -1 38
1 42 4 10 11 -6 28 -27 28 -15 0 -19 5 -15 18 4 12 -1 26 -14 37 -11 10 -20
27 -20 38 0 11 -9 35 -21 53 -11 19 -16 34 -10 34 7 0 11 22 11 55 0 30 4 55
10 55 5 0 7 7 3 15 -3 9 2 22 13 30 11 7 16 17 12 21 -4 4 0 13 10 20 22 17
82 15 82 -3z m-840 -192 c8 -10 28 -34 45 -55 33 -41 58 -43 96 -5 16 16 23
18 35 8 11 -9 14 -8 15 2 0 8 7 -6 14 -30 8 -24 11 -56 8 -71 -3 -15 0 -31 6
-34 7 -5 9 -26 5 -59 -4 -33 0 -73 10 -111 9 -32 13 -62 10 -67 -5 -9 15 -50
31 -61 6 -5 5 -12 -2 -19 -7 -7 -9 -17 -5 -23 28 -38 39 -194 13 -188 -8 2
-11 -3 -8 -13 4 -9 1 -15 -8 -15 -9 0 -15 -10 -15 -24 0 -13 -3 -31 -6 -40 -4
-10 -1 -16 7 -16 17 0 59 -40 59 -57 0 -8 -4 -11 -10 -8 -13 8 -13 -1 0 -26 6
-10 17 -19 26 -19 12 0 13 8 8 37 -6 33 -5 36 15 30 16 -4 21 -1 21 13 0 15
22 29 54 34 22 3 14 25 -12 34 -22 7 -28 16 -27 33 2 25 5 26 31 11 13 -7 14
-11 4 -17 -9 -5 -3 -12 19 -21 26 -11 30 -18 27 -41 -2 -15 -1 -21 1 -13 13
40 36 79 44 74 5 -3 7 -10 4 -15 -4 -5 5 -8 19 -7 25 2 38 18 15 18 -5 0 -17
16 -25 36 -13 30 -13 38 -2 45 7 5 16 9 21 9 14 0 7 78 -8 84 -8 3 -15 12 -15
21 0 18 20 21 21 3 0 -10 2 -10 6 -1 6 16 50 7 75 -14 18 -16 34 -2 24 22 -7
19 3 47 15 39 5 -3 9 -14 9 -24 0 -10 8 -23 17 -29 11 -6 18 -24 20 -48 1 -27
-1 -34 -7 -23 -5 8 -10 11 -10 6 0 -5 -6 -3 -14 3 -12 10 -14 6 -13 -23 1 -25
5 -32 15 -28 11 4 11 -2 -3 -27 -19 -37 -17 -42 16 -43 13 -1 30 -6 37 -11 8
-7 12 -4 12 8 0 14 6 17 34 12 25 -4 39 0 56 15 12 11 23 18 24 17 7 -8 -14
-49 -24 -49 -5 0 -10 -5 -10 -11 0 -6 7 -8 16 -5 11 4 18 -1 21 -15 4 -14 8
-17 13 -8 6 8 14 6 31 -10 18 -17 21 -24 11 -30 -18 -11 -63 -2 -85 18 -17 14
-20 14 -32 -2 -17 -24 -55 -22 -55 2 0 13 -6 19 -18 18 -14 -1 -17 -8 -15 -31
2 -17 0 -25 -3 -18 -7 15 -24 6 -24 -14 0 -8 7 -14 16 -14 14 0 14 -3 4 -15
-17 -20 -25 -19 -38 8 -10 22 -11 22 -11 -5 -1 -25 3 -28 30 -28 17 0 44 -10
61 -21 23 -17 32 -19 38 -9 4 7 12 10 18 6 5 -3 12 4 15 15 4 13 10 18 17 14
16 -10 4 -84 -16 -106 -15 -17 -60 -19 -83 -5 -7 5 -3 -10 8 -33 23 -44 26
-55 12 -47 -5 3 -11 -1 -15 -9 -8 -21 -23 -19 -31 5 -5 15 -14 19 -41 18 -19
-1 -34 -2 -34 -4 0 -1 11 -22 25 -45 29 -52 30 -59 9 -59 -10 0 -14 6 -11 14
3 8 -1 17 -9 20 -8 3 -15 16 -15 28 l-2 23 -4 -23 c-4 -21 -36 -62 -48 -62 -3
0 -5 7 -5 15 0 8 7 15 15 15 8 0 15 4 15 10 0 15 -37 31 -55 24 -9 -4 -21 -1
-25 6 -5 7 -10 8 -14 2 -3 -5 5 -17 19 -26 14 -9 25 -23 25 -31 0 -8 5 -15 10
-15 15 0 12 -30 -4 -36 -8 -3 -16 -18 -20 -35 -3 -16 -10 -29 -15 -29 -6 0 -8
8 -5 18 3 9 -3 5 -12 -10 -22 -33 -34 -36 -34 -7 0 16 -4 19 -20 14 -24 -8
-25 3 -4 33 8 12 13 28 11 35 -2 7 -10 1 -16 -14 -11 -21 -18 -25 -52 -23 -21
1 -47 8 -56 15 -11 9 -14 10 -9 2 4 -7 2 -21 -3 -30 -6 -10 -11 -14 -11 -9 0
5 -6 3 -14 -3 -16 -13 -32 2 -21 19 3 6 0 10 -7 11 -7 0 -2 5 12 11 20 9 22
12 8 15 -16 4 -34 38 -30 56 1 4 -4 7 -11 8 -6 0 -22 2 -34 3 -14 2 -23 -4
-27 -17 -2 -11 -9 -16 -16 -12 -6 4 -8 15 -5 25 3 10 -1 25 -10 33 -22 22 -19
37 8 37 13 0 26 9 33 24 14 31 3 50 -24 42 -15 -5 -22 -2 -25 11 -3 12 -5 9
-6 -8 -1 -19 4 -26 15 -25 29 2 25 -19 -6 -32 -16 -8 -30 -20 -30 -28 0 -17
-8 -17 -40 1 -14 8 -19 14 -12 15 7 0 25 12 39 26 24 24 25 28 11 38 -12 9
-14 16 -6 30 8 15 5 24 -18 45 -15 14 -22 18 -15 9 11 -15 11 -18 -2 -18 -36
0 -31 55 6 69 21 8 21 8 -2 21 -21 11 -23 10 -18 -4 4 -9 2 -16 -3 -16 -6 0
-10 9 -10 19 0 11 -10 27 -21 35 -17 12 -20 21 -16 45 4 17 2 33 -4 37 -6 3
-9 20 -7 36 7 46 -9 43 -32 -7 -12 -27 -27 -45 -38 -46 -21 -1 -47 -3 -140
-13 -72 -8 -162 6 -162 24 0 4 -15 11 -33 14 -18 3 -55 25 -82 49 -53 45 -111
87 -119 87 -3 0 -21 16 -41 36 -29 28 -36 42 -33 67 2 26 7 31 23 29 21 -3 86
-3 118 0 9 1 17 6 17 11 0 5 8 6 18 3 9 -3 -4 14 -30 38 -26 24 -44 47 -41 50
4 3 1 6 -5 6 -7 0 -12 6 -12 14 0 10 16 14 58 14 116 1 175 -26 223 -103 13
-21 19 -25 19 -12 0 9 5 17 10 17 6 0 10 6 10 14 0 7 9 16 20 19 11 3 20 1 20
-4 0 -5 6 -9 14 -9 8 0 22 -7 31 -16 14 -15 14 -18 0 -33 -24 -28 -18 -36 40
-55 30 -9 55 -19 55 -21 0 -15 -15 -35 -26 -35 -8 0 -14 -4 -14 -8 0 -4 -10
-8 -21 -9 -12 -1 -24 -4 -27 -7 -12 -12 5 -15 43 -6 27 6 44 5 54 -3 8 -7 27
-12 42 -12 24 0 28 4 26 27 -1 15 -8 30 -15 33 -10 4 -10 10 -2 25 7 13 8 26
2 33 -12 16 -37 109 -34 125 2 7 -4 19 -13 28 -8 8 -15 24 -15 35 0 39 -18 58
-47 52 -16 -3 -35 -6 -43 -7 -33 -6 -41 28 -30 124 6 51 15 100 20 110 10 19
55 52 85 61 31 10 88 -1 105 -20z m2905 -161 c3 -5 0 -10 -7 -10 -7 0 2 -10
19 -22 18 -13 33 -31 33 -40 0 -16 2 -16 20 2 40 40 56 13 20 -33 -20 -25 -58
-33 -71 -14 -4 5 -12 6 -18 3 -8 -5 -4 -14 11 -26 13 -10 19 -22 15 -27 -5 -4
-13 0 -18 10 -19 34 -44 19 -40 -23 2 -13 1 -13 -8 0 -16 23 -67 -8 -64 -38 2
-18 -2 -22 -25 -22 -36 0 -83 22 -78 36 3 6 0 16 -6 22 -8 8 -7 13 5 18 9 3
17 14 17 23 0 20 60 91 77 91 6 0 15 9 18 20 5 15 15 20 41 20 19 0 34 5 34
10 0 6 4 10 9 10 6 0 13 -4 16 -10z m716 -56 c32 -9 72 -29 91 -44 29 -25 33
-33 32 -76 -1 -88 -14 -143 -35 -154 -22 -13 -269 -14 -279 -3 -4 5 -10 22
-13 39 -6 30 -4 33 42 52 56 23 90 76 71 111 -5 11 -11 31 -12 45 -1 15 -7 26
-13 26 -19 0 20 20 39 20 11 0 45 -7 77 -16z m-1506 -74 c3 -5 2 -10 -4 -10
-5 0 -13 5 -16 10 -3 6 -2 10 4 10 5 0 13 -4 16 -10z m-19 -30 c8 0 14 -8 14
-17 0 -14 -2 -15 -9 -4 -5 7 -13 11 -19 7 -14 -8 -25 11 -16 26 6 9 9 9 12 0
2 -7 10 -12 18 -12z m-1186 -20 c0 -5 -7 -10 -15 -10 -8 0 -15 5 -15 10 0 6 7
10 15 10 8 0 15 -4 15 -10z m-270 -99 c0 -4 -6 -16 -14 -26 -13 -18 -14 -18
-25 4 -9 17 -9 29 0 56 l13 35 13 -31 c7 -17 13 -34 13 -38z m364 44 c-4 -8
-15 -15 -25 -15 -12 0 -23 -10 -29 -25 -9 -24 -30 -35 -30 -15 0 6 5 10 10 10
6 0 10 6 10 13 0 7 15 20 33 29 17 8 33 16 34 17 1 0 0 -6 -3 -14z m1159 -18
c-4 -7 0 -7 10 1 14 12 21 11 47 -8 40 -29 42 -52 2 -31 -9 6 -34 13 -54 16
-25 4 -38 11 -38 21 0 8 5 12 10 9 6 -3 10 -1 10 5 0 6 5 8 10 5 6 -4 7 -12 3
-18z m482 -17 c3 -5 1 -10 -4 -10 -6 0 -11 5 -11 10 0 6 2 10 4 10 3 0 8 -4
11 -10z m-1955 -10 c0 -5 -4 -10 -10 -10 -5 0 -10 5 -10 10 0 6 5 10 10 10 6
0 10 -4 10 -10z m2063 -26 c36 -11 58 -23 59 -33 0 -9 2 -27 3 -41 2 -14 4
-29 6 -35 2 -5 -2 -20 -9 -33 -7 -12 -10 -27 -7 -32 3 -5 0 -12 -6 -15 -5 -4
-8 -13 -5 -21 7 -18 -4 -45 -15 -38 -5 3 -9 -4 -9 -16 0 -13 -5 -20 -12 -17
-7 2 -26 -1 -43 -8 -16 -6 -43 -15 -59 -19 -25 -6 -28 -5 -23 13 3 13 -1 21
-14 24 -11 3 -19 1 -19 -4 0 -5 -11 -2 -25 7 -24 16 -25 16 -18 -2 6 -16 5
-17 -9 -4 -9 8 -14 18 -11 23 2 4 -3 7 -13 7 -12 0 -15 7 -12 29 3 23 1 28
-11 24 -11 -3 -10 -1 2 7 10 6 25 9 33 6 13 -5 14 0 9 23 -5 23 -2 29 14 34
15 3 21 13 21 31 0 15 6 29 14 32 8 3 17 16 20 29 3 13 15 27 26 30 11 3 20
11 20 16 0 11 2 11 93 -17z m-950 -31 c-3 -21 -8 -40 -10 -43 -4 -5 -8 -6 -33
-9 -16 -2 -12 -21 5 -21 8 0 15 -5 15 -11 0 -6 -9 -8 -21 -4 l-22 7 21 -22
c11 -12 26 -19 32 -15 6 4 18 -1 25 -11 9 -11 14 -14 15 -6 0 18 20 15 20 -4
0 -11 6 -13 19 -9 13 4 23 0 29 -12 9 -15 12 -15 28 -3 16 14 17 13 12 -12 -3
-15 0 -29 6 -31 7 -3 4 -12 -7 -23 -10 -11 -17 -14 -16 -9 4 24 -2 34 -17 28
-13 -5 -13 -7 -2 -14 10 -7 8 -9 -6 -9 -16 0 -17 -3 -8 -12 7 -7 12 -16 12
-22 0 -5 -6 -2 -13 9 -8 10 -18 15 -23 12 -6 -3 -16 -1 -24 4 -12 8 -11 9 5 7
14 -2 20 3 21 20 2 27 -13 39 -29 23 -18 -18 -47 -13 -47 9 0 13 -5 18 -15 14
-8 -4 -15 -1 -15 5 0 6 6 11 13 11 22 1 -26 30 -50 30 -13 0 -23 5 -23 10 0 6
5 10 12 10 9 0 9 3 0 12 -18 18 -14 35 9 41 12 3 18 10 14 17 -4 7 1 13 12 16
15 4 19 12 15 30 -4 20 0 24 21 24 24 0 25 -2 20 -37z m471 -5 c9 -36 7 -41
-9 -28 -16 13 -21 50 -6 50 5 0 11 -10 15 -22z m-1459 2 c-3 -5 -11 -10 -16
-10 -6 0 -7 5 -4 10 3 6 11 10 16 10 6 0 7 -4 4 -10z m2073 3 c-10 -2 -26 -2
-35 0 -10 3 -2 5 17 5 19 0 27 -2 18 -5z m-2028 -28 c0 -8 -7 -15 -16 -15 -14
0 -14 3 -4 15 7 8 14 15 16 15 2 0 4 -7 4 -15z m1390 -41 c0 -2 -7 -4 -15 -4
-8 0 -15 4 -15 10 0 5 7 7 15 4 8 -4 15 -8 15 -10z m35 6 c3 -5 1 -10 -4 -10
-6 0 -11 5 -11 10 0 6 2 10 4 10 3 0 8 -4 11 -10z m-1525 -52 c0 -4 -11 -8
-25 -8 -14 0 -25 4 -25 10 0 5 11 9 25 8 14 -1 25 -6 25 -10z m2790 -74 c52
-14 98 -28 103 -33 4 -4 -4 -24 -17 -44 -14 -20 -23 -37 -20 -37 2 0 0 -9 -6
-20 -7 -13 -21 -20 -38 -20 -49 0 -165 82 -206 144 -34 54 7 56 184 10z
m-2683 -6 c-3 -8 -6 -5 -6 6 -1 11 2 17 5 13 3 -3 4 -12 1 -19z m-32 2 c-3 -5
-10 -10 -16 -10 -5 0 -9 5 -9 10 0 6 7 10 16 10 8 0 12 -4 9 -10z m1532 4 c-3
-3 -12 -4 -19 -1 -8 3 -5 6 6 6 11 1 17 -2 13 -5z m-1610 -40 c-3 -3 -12 -4
-19 -1 -8 3 -5 6 6 6 11 1 17 -2 13 -5z m1078 -75 c-6 -17 -9 -19 -16 -8 -12
19 -11 32 1 24 6 -3 10 -1 10 6 0 7 3 10 6 6 3 -3 3 -15 -1 -28z m-921 -91 c7
-5 4 -8 -6 -8 -12 0 -18 7 -17 23 0 15 2 17 6 7 3 -8 11 -18 17 -22z m-884 -8
c0 -5 -2 -10 -4 -10 -3 0 -8 5 -11 10 -3 6 -1 10 4 10 6 0 11 -4 11 -10z m883
-28 c12 6 17 5 17 -5 0 -8 -13 -17 -29 -20 -16 -4 -31 -14 -34 -24 -3 -10 -5
4 -4 31 0 47 1 48 17 29 12 -15 21 -18 33 -11z m-843 -82 c0 -5 -2 -10 -4 -10
-3 0 -8 5 -11 10 -3 6 -1 10 4 10 6 0 11 -4 11 -10z m3135 -50 c3 -5 -1 -10
-9 -10 -9 0 -16 5 -16 10 0 6 4 10 9 10 6 0 13 -4 16 -10z m-2596 -181 c-17
-11 -32 -12 -26 -1 2 4 7 16 11 27 7 19 8 19 18 1 8 -14 7 -21 -3 -27z m-359
21 c0 -5 -2 -10 -4 -10 -3 0 -8 5 -11 10 -3 6 -1 10 4 10 6 0 11 -4 11 -10z
m440 0 c0 -5 -4 -10 -10 -10 -5 0 -10 5 -10 10 0 6 5 10 10 10 6 0 10 -4 10
-10z m-100 -64 c0 -11 -19 -15 -25 -6 -3 5 1 10 9 10 9 0 16 -2 16 -4z m-930
-650 c-1 -20 -2 -20 -15 4 -19 33 -19 46 0 30 8 -7 15 -22 15 -34z m-190 -85
c3 -2 -3 -1 -12 2 -12 4 -18 1 -18 -9 0 -12 -7 -15 -25 -12 -19 4 -25 1 -25
-13 0 -11 -4 -19 -10 -19 -18 0 -11 21 18 55 29 34 27 34 72 -4z m35 8 c11
-17 -1 -21 -15 -4 -8 9 -8 15 -2 15 6 0 14 -5 17 -11z m-135 -234 c7 -8 8 -15
2 -15 -5 0 -15 7 -22 15 -7 8 -8 15 -2 15 5 0 15 -7 22 -15z m-73 -97 c-3 -8
-6 -5 -6 6 -1 11 2 17 5 13 3 -3 4 -12 1 -19z m36 -23 c-3 -9 -8 -14 -10 -11
-3 3 -2 9 2 15 9 16 15 13 8 -4z m-128 -65 c3 -5 -1 -10 -10 -10 -9 0 -13 5
-10 10 3 6 8 10 10 10 2 0 7 -4 10 -10z m-71 -15 c-4 -8 -10 -12 -15 -9 -14 8
-10 24 6 24 9 0 12 -6 9 -15z m-31 -136 c-5 -5 -23 -12 -41 -15 -25 -5 -32 -3
-32 9 0 10 6 14 14 11 8 -3 23 -1 33 4 20 12 40 5 26 -9z m-333 -129 c0 -5 -4
-10 -10 -10 -5 0 -10 5 -10 10 0 6 5 10 10 10 6 0 10 -4 10 -10z m2924 -1261
c-3 -5 -10 -7 -15 -3 -5 3 -7 10 -3 15 3 5 10 7 15 3 5 -3 7 -10 3 -15z m182
-326 c-11 -11 -19 6 -11 24 8 17 8 17 12 0 3 -10 2 -21 -1 -24z m81 -189 c-3
-3 -12 -4 -19 -1 -8 3 -5 6 6 6 11 1 17 -2 13 -5z"/>
<path d="M5111 5966 c2 -2 15 -9 29 -16 23 -12 24 -12 11 3 -7 10 -20 17 -29
17 -8 0 -13 -2 -11 -4z"/>
<path d="M2710 4760 c0 -5 5 -10 10 -10 6 0 10 5 10 10 0 6 -4 10 -10 10 -5 0
-10 -4 -10 -10z"/>
<path d="M5125 5080 c3 -5 8 -10 11 -10 2 0 4 5 4 10 0 6 -5 10 -11 10 -5 0
-7 -4 -4 -10z"/>
<path d="M4470 4590 c0 -5 5 -10 10 -10 6 0 10 5 10 10 0 6 -4 10 -10 10 -5 0
-10 -4 -10 -10z"/>
<path d="M3455 4591 c-3 -5 -1 -12 5 -16 5 -3 10 1 10 9 0 18 -6 21 -15 7z"/>
<path d="M3137 4376 c-3 -8 -2 -18 3 -21 13 -8 24 15 12 27 -6 6 -11 4 -15 -6z"/>
<path d="M3182 4381 c-7 -4 -14 -14 -15 -22 -2 -8 -6 -19 -9 -24 -8 -13 2 -29
19 -32 7 -2 37 -5 68 -7 31 -2 63 -10 71 -17 8 -6 17 -9 20 -6 8 8 -34 47 -51
47 -8 0 -15 7 -15 15 0 8 -4 15 -10 15 -5 0 -10 7 -10 15 0 8 -6 15 -14 15 -8
0 -20 2 -28 5 -7 3 -19 1 -26 -4z"/>
<path d="M3635 4332 c-6 -4 -10 -22 -10 -41 0 -29 5 -36 28 -44 24 -8 32 -5
48 12 16 17 17 24 7 40 -6 11 -23 24 -35 30 -28 13 -25 13 -38 3z"/>
<path d="M4191 4304 c0 -11 3 -14 6 -6 3 7 2 16 -1 19 -3 4 -6 -2 -5 -13z"/>
<path d="M4136 4111 c-7 -11 10 -24 37 -28 10 -2 17 3 17 12 0 8 -4 15 -9 15
-5 0 -16 3 -24 6 -8 3 -18 1 -21 -5z"/>
<path d="M4100 4040 c0 -5 5 -10 10 -10 6 0 10 5 10 10 0 6 -4 10 -10 10 -5 0
-10 -4 -10 -10z"/>
<path d="M3922 3991 c2 -7 7 -12 11 -12 12 1 9 15 -3 20 -7 2 -11 -2 -8 -8z"/>
<path d="M4000 3979 c0 -5 5 -7 10 -4 6 3 10 8 10 11 0 2 -4 4 -10 4 -5 0 -10
-5 -10 -11z"/>
<path d="M3807 3974 c-8 -8 1 -24 14 -24 5 0 9 7 9 15 0 15 -12 20 -23 9z"/>
<path d="M3640 3959 c0 -5 5 -7 10 -4 6 3 10 8 10 11 0 2 -4 4 -10 4 -5 0 -10
-5 -10 -11z"/>
<path d="M4183 3945 c0 -8 4 -12 9 -9 4 3 8 9 8 15 0 5 -4 9 -8 9 -5 0 -9 -7
-9 -15z"/>
<path d="M4220 3935 c0 -8 2 -15 4 -15 2 0 6 7 10 15 3 8 1 15 -4 15 -6 0 -10
-7 -10 -15z"/>
<path d="M4256 3931 c-4 -7 -5 -15 -2 -18 9 -9 19 4 14 18 -4 11 -6 11 -12 0z"/>
<path d="M3810 3869 c0 -5 5 -7 10 -4 6 3 10 8 10 11 0 2 -4 4 -10 4 -5 0 -10
-5 -10 -11z"/>
<path d="M4070 3802 c0 -19 3 -23 9 -13 5 7 14 17 21 21 8 5 5 9 -9 13 -17 4
-21 1 -21 -21z"/>
<path d="M3757 3804 c-4 -4 -7 -14 -7 -23 0 -11 3 -12 11 -4 6 6 10 16 7 23
-2 6 -7 8 -11 4z"/>
<path d="M3710 3784 c0 -8 5 -12 10 -9 6 3 10 10 10 16 0 5 -4 9 -10 9 -5 0
-10 -7 -10 -16z"/>
<path d="M3920 3769 c0 -5 5 -7 10 -4 6 3 10 8 10 11 0 2 -4 4 -10 4 -5 0 -10
-5 -10 -11z"/>
<path d="M3830 3735 c-11 -13 -10 -14 4 -9 9 3 16 10 16 15 0 13 -6 11 -20 -6z"/>
<path d="M4000 3663 c0 -7 8 -12 18 -10 9 1 17 7 17 12 0 5 -8 10 -17 10 -10
1 -18 -4 -18 -12z"/>
<path d="M5340 4234 c0 -8 5 -12 10 -9 6 3 10 10 10 16 0 5 -4 9 -10 9 -5 0
-10 -7 -10 -16z"/>
<path d="M4810 8734 c0 -8 5 -12 10 -9 6 3 10 10 10 16 0 5 -4 9 -10 9 -5 0
-10 -7 -10 -16z"/>
<path d="M5185 8401 c-5 -9 113 -56 121 -48 9 8 -25 29 -70 42 -25 8 -48 10
-51 6z"/>
<path d="M6570 7522 c0 -5 7 -9 15 -9 8 0 12 4 9 9 -3 4 -9 8 -15 8 -5 0 -9
-4 -9 -8z"/>
<path d="M6610 7506 c0 -2 7 -9 15 -16 12 -10 15 -10 15 4 0 9 -7 16 -15 16
-8 0 -15 -2 -15 -4z"/>
<path d="M1530 5806 c0 -2 8 -10 18 -17 15 -13 16 -12 3 4 -13 16 -21 21 -21
13z"/>
<path d="M2630 3301 c0 -6 4 -12 8 -15 5 -3 9 1 9 9 0 8 -4 15 -9 15 -4 0 -8
-4 -8 -9z"/>
<path d="M8900 3233 c-52 -18 -201 -69 -330 -113 -129 -44 -314 -107 -410
-141 -96 -33 -191 -65 -210 -71 -41 -11 -345 -116 -375 -128 -18 -8 -160 -56
-195 -67 -13 -4 -13 -5 0 -13 20 -13 82 -4 150 22 30 11 111 40 180 63 69 24
159 55 200 70 41 15 80 28 85 30 6 1 19 5 30 9 11 5 34 12 50 18 17 5 39 14
50 18 21 9 234 83 365 127 41 13 84 28 95 33 22 10 110 41 290 102 66 23 122
42 123 44 2 1 2 9 0 17 -2 11 -23 7 -98 -20z"/>
<path d="M8988 3174 c-4 -7 -24 -15 -44 -19 -20 -3 -48 -11 -63 -17 -14 -7
-36 -13 -49 -14 -13 -2 -29 -7 -35 -12 -7 -5 -79 -30 -162 -57 -82 -26 -159
-51 -170 -55 -55 -20 -128 -44 -200 -66 -96 -30 -579 -193 -615 -207 -14 -6
-43 -16 -65 -23 -75 -23 -130 -46 -146 -60 -9 -8 -24 -12 -33 -8 -9 3 -23 1
-31 -6 -8 -6 -18 -9 -23 -6 -5 3 -23 -5 -40 -18 -32 -23 -32 -23 -12 -41 11
-10 20 -24 20 -32 0 -7 7 -16 16 -20 11 -4 14 -13 10 -30 -5 -19 -1 -25 19
-33 15 -6 24 -14 21 -19 -4 -5 -2 -21 4 -35 10 -26 9 -26 -34 -22 -54 5 -66
11 -66 37 0 11 -7 30 -16 43 -9 15 -11 26 -5 30 6 4 8 13 4 21 -3 10 1 15 11
15 14 0 15 2 4 14 -7 8 -16 10 -19 4 -3 -5 -16 -10 -27 -11 -12 -1 -22 -5 -22
-10 0 -5 -9 -7 -19 -4 -12 3 -27 -3 -37 -14 -15 -17 -15 -21 0 -53 9 -19 16
-39 16 -45 0 -6 20 -33 45 -61 25 -28 43 -56 39 -61 -3 -6 2 -17 12 -25 11 -9
13 -12 5 -8 -11 5 -13 2 -8 -17 4 -13 7 -30 7 -36 0 -7 6 -13 13 -13 7 0 14
-14 15 -31 2 -19 -2 -28 -8 -24 -5 3 -10 -2 -10 -12 0 -15 -8 -19 -36 -21 -20
-2 -45 -7 -55 -12 -10 -6 -33 -10 -52 -10 -20 0 -46 -9 -61 -21 -15 -12 -33
-18 -45 -14 -13 4 -20 0 -24 -16 -4 -15 -11 -19 -25 -15 -28 9 -73 -10 -66
-28 3 -8 1 -17 -5 -21 -6 -3 -11 -1 -11 4 0 16 -40 13 -46 -3 -3 -8 -12 -12
-20 -9 -8 3 -14 0 -14 -6 0 -6 -6 -11 -14 -11 -9 0 -16 -12 -18 -27 -2 -20 -8
-27 -20 -25 -11 2 -18 -3 -18 -13 0 -8 -7 -15 -15 -15 -9 0 -21 -11 -27 -25
-8 -19 -16 -24 -31 -19 -15 5 -19 3 -14 -10 3 -8 2 -18 -3 -21 -6 -4 -10 1
-10 9 0 12 -10 16 -34 16 -29 0 -34 -4 -33 -20 1 -11 5 -20 10 -20 5 0 7 -5 5
-12 -5 -14 -51 -19 -59 -6 -8 12 -99 -24 -99 -39 0 -7 -7 -13 -15 -13 -9 0
-15 9 -15 22 0 12 -3 18 -7 14 -5 -4 -8 -13 -8 -19 0 -7 -13 -18 -30 -26 -23
-12 -26 -16 -12 -19 9 -2 17 -8 17 -13 0 -6 -8 -5 -20 1 -11 6 -20 15 -20 20
0 6 -5 10 -11 10 -8 0 -10 -16 -6 -50 6 -49 6 -49 -28 -61 -18 -7 -36 -21 -39
-32 -4 -15 -2 -17 7 -8 17 17 27 13 27 -10 0 -18 -4 -20 -30 -14 -31 7 -44
-10 -15 -21 8 -4 15 -12 15 -18 0 -17 41 -53 65 -58 15 -2 19 -10 17 -31 -3
-21 1 -27 15 -27 17 -1 17 -1 1 -14 -23 -17 -23 -26 1 -26 10 0 22 -7 25 -16
3 -8 10 -12 16 -9 15 9 0 -28 -18 -42 -21 -18 -8 -63 19 -63 17 0 19 -3 10
-14 -9 -10 -9 -16 -1 -21 6 -4 12 -5 14 -4 1 2 12 17 24 32 12 16 18 35 15 44
-4 9 -2 14 3 11 5 -4 10 5 10 19 1 13 9 32 18 42 9 10 16 23 16 29 0 6 35 42
78 79 72 62 107 93 225 193 22 19 61 54 85 77 24 23 64 59 90 79 26 21 54 46
62 55 8 9 33 27 55 42 22 14 52 37 67 51 15 14 30 26 33 26 10 0 54 55 55 68
0 7 6 20 13 28 37 46 49 54 80 54 18 0 38 5 44 11 7 7 42 11 84 10 56 -1 76 2
92 16 10 10 21 17 23 15 11 -7 36 17 29 27 -5 9 -11 7 -22 -6 -13 -17 -14 -16
-10 10 2 15 0 27 -5 27 -5 0 -6 5 -2 11 5 8 9 8 14 -1 4 -7 17 -9 33 -4 18 4
27 2 27 -6 0 -6 4 -9 9 -6 5 4 11 2 13 -4 5 -15 110 -32 122 -20 5 5 23 10 38
10 15 0 45 6 65 14 21 7 58 19 83 27 60 17 72 29 30 29 -35 0 -63 11 -61 24 1
3 1 9 0 14 -1 4 0 25 1 47 1 28 -2 37 -9 30 -6 -6 -12 -31 -13 -54 -1 -33 -6
-45 -20 -49 -10 -2 -18 -9 -18 -14 0 -6 -7 -5 -15 2 -8 7 -15 9 -15 5 0 -4
-11 0 -24 8 -18 12 -26 13 -36 4 -10 -9 -11 -9 -5 2 6 10 2 12 -14 6 -17 -5
-28 0 -48 21 -18 20 -27 24 -33 15 -6 -10 -14 -9 -39 4 -31 16 -37 35 -13 43
7 2 12 -3 12 -10 0 -10 10 -13 34 -10 26 3 33 8 29 20 -4 10 -2 13 5 8 7 -4
12 -18 12 -32 0 -20 5 -24 28 -24 18 0 23 3 14 8 -7 5 -10 16 -6 25 7 19 29
23 39 7 3 -5 1 -10 -6 -10 -10 0 -10 -2 0 -12 10 -11 15 -9 26 5 9 13 15 15
20 6 5 -7 -2 -19 -16 -30 -18 -14 -21 -21 -12 -30 13 -13 33 -4 33 17 0 8 5
14 10 14 6 0 10 7 10 16 0 14 3 14 15 4 13 -11 15 -8 15 19 0 25 4 31 21 31
23 0 41 -15 54 -45 7 -18 9 -18 12 -2 5 21 17 22 33 2 10 -12 10 -15 -1 -15
-8 0 -1 -7 16 -16 27 -14 30 -14 42 3 7 10 21 27 31 38 11 11 22 28 25 38 5
13 13 16 27 12 14 -4 20 -2 20 8 0 18 24 29 45 20 9 -3 21 1 28 10 7 8 28 17
47 21 19 4 166 49 325 101 160 51 303 97 318 101 16 3 31 12 33 18 8 20 -1
532 -8 520z m-481 -330 c-3 -3 -12 -4 -19 -1 -8 3 -5 6 6 6 11 1 17 -2 13 -5z
m-60 -20 c-3 -3 -12 -4 -19 -1 -8 3 -5 6 6 6 11 1 17 -2 13 -5z m-92 -33 c-11
-4 -33 -11 -50 -14 l-30 -6 30 14 c17 8 39 14 50 14 l20 0 -20 -8z m-108 -37
c-3 -3 -12 -4 -19 -1 -8 3 -5 6 6 6 11 1 17 -2 13 -5z m448 -14 c-27 -12 -43
-12 -25 0 8 5 22 9 30 9 10 0 8 -3 -5 -9z m-185 -64 c0 -2 -7 -7 -16 -10 -8
-3 -12 -2 -9 4 6 10 25 14 25 6z m-65 -25 c-6 -4 -23 -11 -40 -14 l-30 -6 30
14 c35 16 54 19 40 6z m-78 -27 c-3 -3 -12 -4 -19 -1 -8 3 -5 6 6 6 11 1 17
-2 13 -5z m-82 -24 c-3 -5 -12 -10 -18 -10 -7 0 -6 4 3 10 19 12 23 12 15 0z
m-420 -30 c-2 -4 -16 -5 -30 -3 -13 3 -23 9 -20 13 2 4 16 5 30 3 13 -3 23 -9
20 -13z m375 10 c0 -5 -7 -10 -16 -10 -8 0 -12 5 -9 10 3 6 10 10 16 10 5 0 9
-4 9 -10z m-65 -70 c-3 -5 -23 -10 -43 -10 -28 0 -33 3 -22 10 20 13 73 13 65
0z m-738 -116 c-3 -3 -12 -4 -19 -1 -8 3 -5 6 6 6 11 1 17 -2 13 -5z m103 -43
c0 -14 5 -18 20 -14 16 4 19 2 14 -11 -7 -19 -25 -21 -42 -4 -15 15 -16 48 -2
48 6 0 10 -9 10 -19z m100 13 c0 -3 -6 -12 -14 -19 -12 -12 -15 -12 -19 -1 -3
8 -3 17 0 20 8 8 33 8 33 0z m66 -152 c-4 -3 -14 2 -24 12 -16 18 -16 18 6 6
13 -6 21 -14 18 -18z m111 -17 c8 -8 19 -13 24 -10 5 4 9 1 9 -4 0 -16 -26
-13 -44 5 -9 8 -16 17 -16 20 0 8 12 4 27 -11z"/>
<path d="M2417 3103 c-10 -10 -8 -33 2 -33 6 0 9 9 8 20 -1 23 -1 22 -10 13z"/>
<path d="M2840 2956 c0 -9 5 -16 10 -16 6 0 10 4 10 9 0 6 -4 13 -10 16 -5 3
-10 -1 -10 -9z"/>
<path d="M2779 2910 c-9 -10 -13 -24 -9 -36 6 -17 8 -17 15 6 4 14 12 28 17
31 6 4 6 9 2 11 -5 3 -16 -3 -25 -12z"/>
<path d="M2794 2844 c3 -8 6 -18 6 -20 0 -3 5 -2 10 1 15 9 12 22 -6 29 -12 5
-15 2 -10 -10z"/>
<path d="M2758 2795 c5 -29 3 -28 36 -15 31 11 36 34 6 25 -12 -4 -27 -2 -34
4 -11 9 -12 6 -8 -14z"/>
<path d="M2720 2790 c-13 -9 -13 -11 0 -20 10 -6 16 -6 18 0 7 20 -3 30 -18
20z"/>
<path d="M2820 2780 c0 -5 5 -10 10 -10 6 0 10 5 10 10 0 6 -4 10 -10 10 -5 0
-10 -4 -10 -10z"/>
<path d="M368 2704 c-2 -1 -15 -5 -28 -7 -45 -9 -165 -56 -168 -67 -2 -5 -12
-10 -22 -10 -10 0 -22 -5 -25 -10 -4 -6 -13 -9 -22 -8 -11 2 -20 -11 -29 -41
-11 -38 -11 -46 3 -60 41 -41 77 -24 197 93 37 36 75 64 84 64 9 0 33 2 52 5
20 3 53 -1 75 -9 22 -7 48 -14 57 -14 9 0 29 -10 45 -23 32 -27 113 -70 119
-64 5 5 -57 60 -101 92 -55 39 -217 80 -237 59z"/>
<path d="M2786 2668 c3 -4 9 -8 15 -8 5 0 9 4 9 8 0 5 -7 9 -15 9 -8 0 -12 -4
-9 -9z"/>
<path d="M2665 2540 c-3 -5 -1 -10 4 -10 6 0 11 5 11 10 0 6 -2 10 -4 10 -3 0
-8 -4 -11 -10z"/>
<path d="M730 2525 c0 -2 20 -16 43 -30 37 -21 56 -25 124 -25 46 0 99 -7 125
-16 27 -9 69 -14 104 -12 50 3 55 4 29 11 -16 4 -65 19 -107 33 -70 23 -85 24
-153 16 -65 -7 -82 -6 -117 10 -43 19 -48 21 -48 13z"/>
<path d="M1315 2471 c-3 -5 -2 -12 2 -14 12 -8 63 4 63 14 0 12 -57 12 -65 0z"/>
<path d="M412 2283 c2 -20 9 -29 26 -31 21 -3 23 -8 26 -65 1 -10 9 -23 19
-29 12 -6 16 -16 12 -29 -6 -17 -3 -19 18 -14 19 5 29 1 41 -16 8 -13 19 -20
22 -16 4 4 13 2 21 -4 10 -9 13 -8 13 5 0 9 -16 22 -37 31 -35 14 -38 19 -41
58 -2 31 -9 48 -30 66 -16 15 -20 22 -9 18 9 -3 17 -2 17 3 0 6 -5 10 -12 10
-6 0 -19 6 -27 14 -9 7 -26 17 -39 21 -21 6 -23 4 -20 -22z"/>
<path d="M500 2090 c0 -5 5 -10 11 -10 5 0 7 5 4 10 -3 6 -8 10 -11 10 -2 0
-4 -4 -4 -10z"/>
<path d="M541 2080 c0 -8 4 -22 9 -30 12 -18 12 -2 0 25 -6 13 -9 15 -9 5z"/>
<path d="M636 1891 c-6 -18 -4 -28 8 -36 9 -7 16 -17 16 -24 0 -6 9 -11 21
-11 18 0 20 4 14 33 -4 17 -11 39 -16 47 -7 13 -8 12 -9 -2 0 -10 -4 -18 -9
-18 -5 0 -11 8 -13 18 -3 14 -6 12 -12 -7z"/>
<path d="M720 1839 c0 -5 5 -7 10 -4 6 3 10 8 10 11 0 2 -4 4 -10 4 -5 0 -10
-5 -10 -11z"/>
<path d="M7300 1835 c0 -20 106 -99 135 -100 5 0 21 -11 35 -25 22 -22 25 -32
22 -78 -3 -36 1 -60 12 -77 9 -13 25 -64 36 -112 25 -106 78 -222 102 -223 9
0 23 -7 31 -15 8 -8 35 -17 59 -21 49 -8 78 -28 78 -56 0 -11 4 -27 9 -36 5
-10 17 -53 26 -97 9 -43 20 -84 24 -90 5 -5 13 -35 19 -65 6 -30 20 -91 32
-135 12 -44 25 -98 30 -120 5 -22 16 -65 25 -95 8 -30 21 -84 29 -120 8 -36
24 -94 35 -129 12 -35 21 -75 22 -90 1 -47 35 -134 55 -142 10 -4 39 -8 63 -8
l43 -1 -4 40 c-2 22 0 40 4 40 5 0 8 -4 8 -10 0 -5 8 -10 19 -10 16 0 35 -31
32 -52 -1 -5 28 -8 64 -8 l65 0 0 31 c0 18 -6 37 -14 43 -23 18 -31 75 -12 82
26 10 18 25 -9 18 -14 -3 -25 -2 -24 2 4 14 -22 100 -124 414 -42 127 -76 255
-83 303 -1 12 -8 47 -14 77 -7 30 -14 66 -16 80 -6 42 -26 114 -37 128 -10 12
-54 16 -80 6 -13 -5 -13 -9 0 -35 8 -16 12 -33 8 -38 -3 -6 -2 -18 4 -28 8
-16 30 -97 66 -243 7 -30 12 -67 10 -83 -2 -15 0 -25 4 -22 5 2 22 -55 40
-128 17 -73 38 -157 46 -187 8 -30 16 -66 18 -80 2 -14 9 -36 16 -49 7 -12 11
-32 8 -42 -3 -10 -2 -19 3 -19 4 0 10 -13 12 -30 3 -16 2 -28 0 -25 -3 2 -17
-4 -32 -15 -26 -18 -27 -18 -42 0 -9 10 -14 20 -12 23 6 6 -18 71 -29 78 -5 4
-9 20 -9 35 0 16 -4 34 -9 40 -6 7 -9 16 -8 20 5 17 -25 99 -38 107 -7 4 -13
13 -13 18 0 6 5 7 10 4 12 -7 14 38 3 49 -5 4 -9 17 -10 29 -1 12 -4 36 -6 52
-3 26 -37 167 -83 350 -9 33 -19 75 -24 93 -4 17 -6 32 -3 32 3 0 0 7 -7 15
-6 8 -8 20 -4 26 4 8 3 9 -4 5 -8 -5 -12 0 -12 13 0 14 9 23 25 27 14 3 25 8
25 10 0 2 -18 31 -40 63 -43 63 -72 150 -67 206 2 38 8 43 27 20 16 -20 54
-19 75 1 9 9 37 24 62 34 43 16 47 21 59 66 19 71 18 105 -2 97 -14 -5 -15 -3
-5 16 7 12 16 19 21 16 5 -3 11 -1 14 4 10 15 -12 24 -40 17 -17 -5 -24 -12
-20 -21 3 -9 0 -12 -10 -8 -17 6 -19 -18 -2 -35 9 -9 8 -12 -4 -12 -9 0 -20
-12 -25 -27 l-9 -26 -27 29 c-23 24 -27 38 -27 86 0 56 -1 58 -27 59 -16 1
-32 0 -38 -1 -5 -2 -22 -2 -37 -1 -16 1 -28 -3 -28 -9 0 -5 -3 -9 -7 -9 -20 3
-27 -2 -14 -10 12 -8 12 -12 -2 -26 -10 -9 -15 -20 -12 -25 6 -10 -33 -20 -51
-13 -8 3 -12 13 -9 22 3 12 -8 22 -46 40 -28 12 -60 32 -71 43 -17 17 -35 20
-112 22 -70 1 -101 6 -133 22 -28 14 -43 17 -43 9z m919 -1718 c0 -21 -1 -21
-9 -2 -12 28 -12 37 0 30 6 -3 10 -16 9 -28z"/>
<path d="M690 1795 c-14 -26 -5 -50 9 -26 6 9 11 0 16 -28 l7 -41 29 17 c36
21 37 40 4 53 -15 6 -25 17 -25 30 0 28 -24 25 -40 -5z"/>
<path d="M136 1801 c-3 -5 1 -12 10 -15 20 -8 29 -1 19 13 -8 13 -22 14 -29 2z"/>
<path d="M7850 1801 c0 -5 -8 -12 -17 -14 -11 -3 -7 -5 10 -6 27 -1 36 12 17
24 -5 3 -10 2 -10 -4z"/>
<path d="M170 1761 c0 -5 -11 -8 -25 -5 -23 4 -25 2 -19 -23 7 -29 20 -43 41
-43 7 0 9 9 5 22 -4 17 -2 20 12 15 10 -4 20 -7 22 -7 2 0 4 -9 4 -21 0 -11
-4 -18 -9 -15 -15 10 -42 -19 -35 -37 3 -9 10 -17 15 -17 15 0 10 -37 -6 -44
-16 -6 -21 -36 -6 -36 5 0 11 -10 13 -22 3 -20 8 -23 43 -20 22 2 45 8 52 14
20 16 64 -22 59 -51 -2 -16 2 -25 13 -28 19 -5 46 -67 36 -83 -3 -5 -1 -10 5
-10 6 0 18 -7 26 -15 9 -8 26 -15 40 -15 16 0 24 -6 24 -17 0 -13 3 -14 12 -5
10 10 10 16 0 30 -7 9 -15 24 -19 32 -3 8 -17 25 -30 37 -13 12 -23 33 -23 46
0 13 -9 36 -20 49 -10 14 -17 28 -14 31 11 10 -7 47 -23 47 -11 0 -14 7 -11
24 4 17 1 23 -9 19 -9 -3 -11 0 -7 10 3 10 -17 34 -63 72 -37 32 -69 62 -71
66 -5 12 -32 11 -32 0z"/>
<path d="M735 1690 c-16 -4 -23 -9 -15 -10 23 -4 44 1 55 11 10 10 4 10 -40
-1z"/>
<path d="M758 1643 c-26 -7 -22 -22 8 -29 29 -7 52 14 31 28 -7 4 -14 7 -17 7
-3 -1 -13 -3 -22 -6z"/>
<path d="M0 1560 l0 -49 68 -34 c108 -55 152 -80 152 -89 0 -4 7 -8 15 -8 8 0
19 -9 25 -20 6 -11 20 -20 31 -20 26 0 37 30 16 42 -10 5 -17 16 -17 23 0 8
-7 15 -15 15 -8 0 -15 7 -15 15 0 9 -9 15 -21 15 -12 0 -29 9 -39 20 -9 10
-29 24 -43 29 -15 6 -27 17 -27 26 0 8 -11 17 -25 21 -14 3 -25 10 -25 14 0 7
-65 50 -76 50 -2 0 -4 -22 -4 -50z"/>
<path d="M6230 1580 c0 -5 5 -10 11 -10 5 0 7 5 4 10 -3 6 -8 10 -11 10 -2 0
-4 -4 -4 -10z"/>
<path d="M820 1529 c0 -5 5 -7 10 -4 6 3 10 8 10 11 0 2 -4 4 -10 4 -5 0 -10
-5 -10 -11z"/>
<path d="M5856 1503 c-4 -4 -13 -8 -21 -9 -22 -3 -75 -28 -75 -35 0 -3 10 -15
23 -27 20 -19 32 -21 77 -18 30 3 60 0 66 -5 8 -7 14 -6 19 1 3 5 15 10 26 10
10 0 19 4 19 8 0 14 -23 32 -42 32 -10 0 -18 5 -18 10 0 6 -9 10 -19 10 -11 0
-26 7 -34 15 -8 8 -18 11 -21 8z"/>
<path d="M201 1283 l-23 -19 29 -29 c16 -17 48 -47 71 -68 23 -21 42 -44 42
-51 0 -7 9 -25 21 -40 11 -14 17 -26 13 -26 -4 0 3 -11 15 -24 13 -14 30 -22
38 -19 9 4 16 -2 20 -16 3 -11 9 -21 14 -21 5 0 9 -9 9 -20 0 -10 9 -24 20
-30 11 -6 20 -17 20 -24 0 -8 18 -37 41 -66 30 -38 44 -49 53 -41 9 8 16 4 26
-14 8 -16 28 -29 51 -35 21 -6 51 -22 67 -35 37 -31 42 -31 42 0 0 14 -4 25
-9 25 -9 0 1 58 13 78 3 5 -1 12 -9 16 -8 3 -15 16 -15 30 0 15 -7 25 -19 29
-19 5 -23 28 -8 43 14 14 7 24 -15 21 -17 -1 -23 3 -22 16 2 14 -1 15 -11 7
-10 -8 -19 -8 -34 0 -27 14 -27 20 -1 13 11 -3 20 0 20 6 0 6 6 11 13 11 7 0
17 8 23 18 9 14 8 23 -6 40 -10 12 -22 22 -27 22 -17 0 -53 46 -53 68 0 13 -6
22 -15 22 -8 0 -15 7 -15 15 0 8 -16 33 -36 54 -37 41 -64 45 -64 9 0 -10 -4
-16 -10 -13 -5 3 -10 4 -10 0 0 -3 9 -9 20 -13 18 -7 18 -9 -10 -19 -17 -7
-32 -7 -36 -2 -3 5 5 9 18 10 18 1 16 3 -9 10 -18 5 -33 16 -33 24 0 8 -6 15
-14 15 -7 0 -19 7 -26 15 -7 8 -16 15 -20 15 -14 0 -4 -30 15 -43 10 -8 15
-19 11 -25 -4 -7 -1 -12 8 -12 21 0 27 -13 20 -48 l-6 -30 -29 25 c-16 14 -26
30 -23 35 3 5 -3 12 -15 15 -11 3 -19 9 -16 13 3 5 1 11 -4 15 -6 3 -8 12 -4
20 4 11 -3 15 -27 15 -18 0 -38 7 -44 16 -11 14 -14 14 -35 -3z"/>
<path d="M7977 1293 c-4 -3 -7 -13 -7 -22 1 -13 3 -13 11 2 11 19 8 33 -4 20z"/>
<path d="M6330 1269 c0 -5 5 -7 10 -4 6 3 10 8 10 11 0 2 -4 4 -10 4 -5 0 -10
-5 -10 -11z"/>
<path d="M985 1170 c3 -5 8 -10 11 -10 2 0 4 5 4 10 0 6 -5 10 -11 10 -5 0 -7
-4 -4 -10z"/>
<path d="M6410 1115 c0 -8 9 -15 20 -15 11 0 20 7 20 15 0 8 -9 15 -20 15 -11
0 -20 -7 -20 -15z"/>
<path d="M230 835 c0 -8 4 -15 10 -15 5 0 7 7 4 15 -4 8 -8 15 -10 15 -2 0 -4
-7 -4 -15z"/>
<path d="M1 768 c2 -30 3 -35 6 -15 2 15 9 25 14 22 14 -9 11 5 -6 21 -13 14
-15 11 -14 -28z"/>
<path d="M247 789 c6 -6 9 -18 6 -25 -3 -8 0 -14 6 -14 6 0 11 4 11 9 0 19
-12 41 -23 41 -8 0 -8 -3 0 -11z"/>
<path d="M6235 749 c-4 -6 -5 -11 -4 -12 2 -2 12 -9 22 -16 15 -12 17 -11 17
13 0 26 -22 36 -35 15z"/>
<path d="M250 730 c0 -5 5 -10 10 -10 6 0 10 5 10 10 0 6 -4 10 -10 10 -5 0
-10 -4 -10 -10z"/>
<path d="M270 691 c0 -10 7 -25 17 -32 15 -13 15 -12 4 9 -6 12 -9 27 -6 32 3
6 1 10 -4 10 -6 0 -11 -8 -11 -19z"/>
<path d="M6271 686 c-8 -10 -9 -16 -1 -21 6 -4 7 -12 1 -23 -13 -23 8 -62 32
-62 20 0 20 0 -1 20 -24 23 -28 46 -9 53 9 4 8 6 -2 6 -10 1 -11 4 -2 15 7 8
8 17 3 20 -6 3 -15 -1 -21 -8z"/>
<path d="M6230 640 c0 -5 5 -10 11 -10 5 0 7 5 4 10 -3 6 -8 10 -11 10 -2 0
-4 -4 -4 -10z"/>
<path d="M6584 609 c-19 -24 -23 -48 -11 -53 8 -3 9 -7 2 -13 -6 -4 -10 -21
-11 -38 0 -16 -3 -41 -6 -55 -3 -14 -3 -19 -1 -12 3 6 9 12 15 12 6 0 7 -7 2
-17 -4 -10 -8 -56 -9 -103 0 -47 -4 -90 -8 -97 -4 -6 -3 -14 3 -18 6 -3 10
-18 10 -33 0 -15 0 -59 0 -98 -1 -83 0 -84 108 -84 58 0 62 1 62 23 0 13 -9
50 -20 83 -16 46 -20 82 -19 166 0 58 -2 111 -5 116 -3 6 -8 23 -10 39 -4 38
-28 103 -38 103 -4 0 -8 7 -8 15 0 8 -8 23 -19 34 -10 10 -20 24 -23 31 -3 9
-6 9 -14 -1z"/>
<path d="M671 544 c0 -11 3 -14 6 -6 3 7 2 16 -1 19 -3 4 -6 -2 -5 -13z"/>
<path d="M5520 508 c0 -4 9 -8 20 -8 11 0 20 4 20 8 0 4 -9 8 -20 8 -11 0 -20
-4 -20 -8z"/>
<path d="M885 308 c-10 -28 -13 -68 -6 -63 9 5 27 -34 33 -68 5 -28 23 -15 23
16 0 17 6 29 17 33 26 8 22 22 -4 20 -17 -1 -24 5 -26 23 -5 31 -30 58 -37 39z"/>
<path d="M1278 246 c-13 -29 -19 -31 -36 -14 -9 9 -12 8 -12 -5 0 -9 5 -17 10
-17 6 0 10 -12 10 -26 0 -18 4 -25 14 -21 8 3 18 -5 25 -19 7 -16 19 -24 36
-24 14 0 25 -5 25 -11 0 -5 5 -7 11 -4 5 4 9 17 7 30 -1 12 3 30 11 38 11 14
11 18 -3 23 -9 3 -16 15 -16 25 0 11 -7 19 -16 19 -9 0 -13 5 -9 13 4 6 0 4
-8 -5 -15 -19 -37 -24 -37 -9 0 5 5 11 12 13 9 3 9 6 0 12 -7 4 -16 -3 -24
-18z"/>
</g>
</svg>
